<?xml version="1.0" encoding="UTF-8" standalone="no"?>
<svg
   viewBox="0 0 96.18554 97.855609"
   version="1.1"
   id="svg40"
   width="25.449093mm"
   height="25.890963mm"
   sodipodi:docname="icon.svg"
   xml:space="preserve"
   inkscape:version="1.4 (86a8ad7, 2024-10-11)"
   xmlns:inkscape="http://www.inkscape.org/namespaces/inkscape"
   xmlns:sodipodi="http://sodipodi.sourceforge.net/DTD/sodipodi-0.dtd"
   xmlns="http://www.w3.org/2000/svg"
   xmlns:svg="http://www.w3.org/2000/svg"
   xmlns:rdf="http://www.w3.org/1999/02/22-rdf-syntax-ns#"
   xmlns:cc="http://creativecommons.org/ns#"
   xmlns:dc="http://purl.org/dc/elements/1.1/"><sodipodi:namedview
     id="namedview1"
     pagecolor="#000000"
     bordercolor="#000000"
     borderopacity="0.25"
     inkscape:showpageshadow="2"
     inkscape:pageopacity="0.0"
     inkscape:pagecheckerboard="0"
     inkscape:deskcolor="#d1d1d1"
     inkscape:document-units="mm"
     inkscape:zoom="6.6550762"
     inkscape:cx="20.510659"
     inkscape:cy="30.578162"
     inkscape:window-width="2560"
     inkscape:window-height="1494"
     inkscape:window-x="-11"
     inkscape:window-y="-11"
     inkscape:window-maximized="1"
     inkscape:current-layer="g5" /><metadata
     id="metadata44"><rdf:RDF><cc:Work
         rdf:about=""><dc:format>image/svg+xml</dc:format><dc:type
           rdf:resource="http://purl.org/dc/dcmitype/StillImage" /><dc:title>Ativo 4</dc:title></cc:Work></rdf:RDF></metadata><defs
     id="defs4"><style
       id="style2">.cls-1{fill:#fff;}</style></defs><title
     id="title6">Ativo 4</title><g
     id="g4538"
     style="fill:#ffffff;fill-opacity:1"><path
       style="fill:#ffffff;fill-opacity:1"
       id="path8"
       d="m 94.866208,42.32233 a 2.48,2.48 0 0 0 -1.15,-0.3 l -3,-11.66 a 2.5,2.5 0 0 0 -1.81,-4.64 l -3.19,-5.9 a 2.48,2.48 0 0 0 0.43,-0.55 2.5,2.5 0 0 0 -3.7,-3.2 l -5.93,-4.76 a 2.5,2.5 0 0 0 -4.21,-2.6299999 l -12.02,-5.69 a 2.5,2.5 0 0 0 -4.64,-1.7 2.48,2.48 0 0 0 -0.25,0.71 l -19.17,0.57 a 2.5028184,2.5028184 0 0 0 -4.8,1.42 l -15.63,9.9999999 a 2.48,2.48 0 0 0 -0.54,-0.41 2.51,2.51 0 0 0 -2.85,4.09 l -7.6499997,14.32 a 2.5013996,2.5013996 0 0 0 -1.34,4.82 l -1.19,21 a 2.5,2.5 0 1 0 0.84,4.92 l 5.08,12.45 a 2.48,2.48 0 0 0 -0.7,0.81 2.5,2.5 0 0 0 3.2499997,3.47 l 9,11.5 a 2.51,2.51 0 1 0 4.08,2.86 2.46,2.46 0 0 0 0.1,-0.24 l 19,2.34 a 2.5,2.5 0 0 0 4.93,-0.41 l 15.53,-3.78 a 2.5,2.5 0 1 0 4.64,-1.84 l 12.35,-7.75 a 2.48,2.48 0 0 0 0.3,0.2 2.5,2.5 0 0 0 3,-3.9 l 8.32,-15.08 a 2.5048004,2.5048004 0 0 0 1.4,-4.81 l 0.8,-11.56 a 2.5,2.5 0 0 0 0.74,-4.65 z m -12.13,35.51 -0.29,-0.09 -0.3,-25.51 a 2.5,2.5 0 0 0 0.71,-0.3 l 7.64,7.69 -0.08,0.12 a 2.5,2.5 0 0 0 0.53,3.07 z m -69.33,-59.69 a 2.48,2.48 0 0 0 0.47,0.08 l 4.71,28.77 a 2.49,2.49 0 0 0 -0.41,0.21 l -9.5399997,-9.21 -2.37,-2.26 v -0.07 a 2.51,2.51 0 0 0 -0.56,-3.09 z m 68.33,-1.2 a 2.49,2.49 0 0 0 -0.11,2 l -6.73,3.57 a 2.34,2.34 0 0 0 -1.1,-0.73 l 0.27,-3 0.56,-6.13 a 2.51,2.51 0 0 0 1.2,-0.5 z m -2.08,62.05 a 2.48,2.48 0 0 0 -0.24,0.66 l -29.18,-3.77 a 2.51,2.51 0 0 0 -0.22,-0.8 l 30,-23.33 a 2.25,2.25 0 0 0 1,0.49 l 0.3,25.49 a 2.49,2.49 0 0 0 -1.66,1.26 z m -54.32,-3.35 a 2.49,2.49 0 0 0 -2.19,-1.92 l -2.74,-22.13 a 2.5,2.5 0 0 0 0.5,-0.25 l 13.93,13.28 10.76,10.25 v 0.07 a 2.48,2.48 0 0 0 -0.23,0.64 h -11.53 z m 14.42,-59.73 9.59,26.82 a 2.43,2.43 0 0 0 -0.81,2 l -7.41,1 -19.25,2.64 a 2.49,2.49 0 0 0 -0.65,-1 l 17.55,-31.54 a 2.49,2.49 0 0 0 0.98,0.08 z m 39.3,34.08 a 2.51,2.51 0 0 0 0.23,0.86 l -30,23.33 a 2.21,2.21 0 0 0 -0.77,-0.42 l 0.82,-8.43 1.81,-18.26 a 2.49,2.49 0 0 0 1.95,-1.08 h 0.13 z m -57,-0.5 26.86,-3.62 a 2.48,2.48 0 0 0 0.93,0.91 l 0.2,0.09 -1,10 -1.63,16.79 a 2.51,2.51 0 0 0 -1,0.39 l -24.72,-23.53 v -0.07 a 2.5,2.5 0 0 0 0.34,-0.96 z m 48.46,-25.5 a 2.51,2.51 0 0 0 0.33,1.45 l -18.3,17.16 a 2.39,2.39 0 0 0 -2.2,-0.43 l -9.53,-26.65 a 2.48,2.48 0 0 0 0.79,-0.82 l 22,7 z m 9.73,23.69 a 2.17,2.17 0 0 0 -1,1.2 l -25.72,-4 a 2.51,2.51 0 0 0 -0.24,-1.42 h 0.05 l 18.31,-17.2 0.18,0.12 a 2.5,2.5 0 0 0 1.44,0.3 l 2.4,7.22 z m -42.46,-32.4 -17.56,31.57 a 2.48,2.48 0 0 0 -0.52,-0.09 l -4.71,-28.77 a 2.44,2.44 0 0 0 1.52,-2 l 20.57,-1.86 a 2.49,2.49 0 0 0 0.7,1.15 z m 33.36,7.2 a 2.51,2.51 0 0 0 -0.28,0.39 l -28.9,-9.25 a 2.51,2.51 0 0 0 -0.11,-1 l 14.19,-8.3899999 a 2.48,2.48 0 0 0 0.6,0.47 2.49,2.49 0 0 0 2.13,0.12 l 8.15,11.6299999 z m -46,54.91 a 2.48,2.48 0 0 0 0.22,-0.62 l 20,-0.06 a 2.33,2.33 0 0 0 1.53,1.75 v 0.14 l -2,14.31 a 2.49,2.49 0 0 0 -1.26,0.68 l -16.82,-14.7 z m 66.32,-34.08 a 2.48,2.48 0 0 0 -0.32,1.59 l -2.9,1.29 -4.7,2.11 a 2.49,2.49 0 0 0 -0.62,-0.57 l 3.71,-10 2.64,-7.11 a 2.48,2.48 0 0 0 0.37,0 l 3,11.62 a 2.49,2.49 0 0 0 -1.18,1.07 z m -4.32,-15.19 a 2.49,2.49 0 0 0 1.12,2.1 l -6.4,17.1 a 2.5,2.5 0 0 0 -0.55,0 l -7,-21 a 2.48,2.48 0 0 0 0.89,-0.92 v -0.08 l 4.38,1.05 z m -14,-15.7 a 2.5,2.5 0 0 0 0.42,0.18 l -0.23,2.48 -0.6,6.6 a 2.51,2.51 0 0 0 -0.59,0.16 l -9.38,-13.2999999 -3.06,-4.37 0.1,-0.12 12,5.66 a 2.5,2.5 0 0 0 1.27,2.7099999 z m -17.69,-9.1699999 -14.19,8.4399999 a 2.44,2.44 0 0 0 -2.52,-0.7 l -1,-1.7599999 -2.29,-4 a 2.42,2.42 0 0 0 0.88,-1.58 l 19.1,-0.57 z M 5.4562083,36.54233 l 4.21,4 7.7199997,7.45 v 0.07 a 2.49,2.49 0 0 0 -0.14,2.07 l -12.8699997,8.42 a 2.48,2.48 0 0 0 -0.52,-0.39 2.5,2.5 0 0 0 -0.5,-0.2 l 1.19,-21 a 2.5,2.5 0 0 0 0.93,-0.42 z m -0.54,24.87 a 2.49,2.49 0 0 0 0.08,-1.91 l 2.67,-1.76 10.1499997,-6.68 a 2.4,2.4 0 0 0 1.46,0.68 l 2.77,22.13 a 2.5,2.5 0 0 0 -0.71,0.39 l -11.4299997,-8.94 z m 41.6199997,31.75 a 2.49,2.49 0 0 0 -0.56,-0.22 l 2,-14.32 a 2.51,2.51 0 0 0 1.34,-0.54 l 6.83,5.43 7.55,6 a 2.11,2.11 0 0 0 -0.45,1.13 l -15.6,3.8 a 2.48,2.48 0 0 0 -1.11,-1.28 z m 20.39,-4.43 a 2.5,2.5 0 0 0 -2.38,0 l -8.58,-6.8 -6,-4.72 0.08,-0.19 21.71,2.79 7.63,1 a 2.51,2.51 0 0 0 0.19,0.52 l -12.26,7.66 a 2.51,2.51 0 0 0 -0.39,-0.26 z m 24.38,-29.9 -7.64,-7.69 0.08,-0.15 a 2.48,2.48 0 0 0 0.25,-1.67 l 7.62,-3.33 a 2.39,2.39 0 0 0 1.37,1 l -0.77,11.5 a 2.5,2.5 0 0 0 -0.91,0.34 z m -3.37,-32.56 a 2.48,2.48 0 0 0 -0.54,0.67 v 0.08 l -5.1,-1.23 -6.74,-1.62 a 2.5,2.5 0 0 0 -0.08,-0.66 l 6.82,-3.62 a 2.43,2.43 0 0 0 2.52,0.54 z m -56,-21.2799999 a 2.46,2.46 0 0 0 2.49,0.82 l 3.34,5.8099999 a 2.36,2.36 0 0 0 -0.77,1.48 l -20.58,1.89 v 0 z M 4.1462083,62.39233 l 0.12,-0.08 6.0899997,4.77 10.29,8.08 a 2.49,2.49 0 0 0 -0.2,0.67 l -2.89,0.22 -5.52,0.42 a 2.48,2.48 0 0 0 -2.7899997,-1.71 z m 7.4799997,16.4 a 2.31,2.31 0 0 0 0.52,-1.19 l 8.37,-0.61 a 2.49,2.49 0 0 0 1.63,1.62 l -0.78,11.53 a 2.51,2.51 0 0 0 -0.8,0.19 z m 11.13,11.65 -0.23,-0.1 0.78,-11.67 a 2.5,2.5 0 0 0 1.05,-0.43 l 18.6,16.32 c 0,0.08 0,0.15 -0.06,0.23 l -18.85,-2.32 a 2.5,2.5 0 0 0 -1.29,-2.03 z"
       class="cls-1" /></g><g
     id="g1"
     transform="matrix(4.9757281,0,0,4.7732205,-117.96726,1.73108)"><g
       id="XMLID_16_"
       transform="matrix(0.54134843,0,0,0.56431556,-159.50701,-68.799483)">
	<g
   id="g5">
		
		
		
		
		
		
	</g>
</g></g></svg>
